<?xml version="1.0" encoding="utf-8"?>
<!-- Generator: Adobe Illustrator 16.0.1, SVG Export Plug-In . SVG Version: 6.00 Build 0)  -->
<!DOCTYPE svg PUBLIC "-//W3C//DTD SVG 1.1//EN" "http://www.w3.org/Graphics/SVG/1.1/DTD/svg11.dtd">
<svg version="1.1" id="Слой_1" xmlns="http://www.w3.org/2000/svg" xmlns:xlink="http://www.w3.org/1999/xlink" x="0px" y="0px"
	 width="50px" height="50px" viewBox="0 0 50 50" enable-background="new 0 0 50 50" xml:space="preserve">
<g>
	<g>
		<g>
			<path fill="#999999" d="M25,1c13.233,0,24,10.767,24,24S38.233,49,25,49S1,38.233,1,25S11.767,1,25,1 M25,0
				C11.191,0,0,11.193,0,25s11.191,25,25,25c13.807,0,25-11.193,25-25S38.807,0,25,0L25,0z"/>
		</g>
	</g>
	<g>
		<path fill="#999999" d="M30.008,46h-1c0-4,2.074-6.339,4.271-8.476c2.65-2.578,5.39-5.524,5.39-12.524h1
			c0,8-3.023,10.646-5.691,13.241C31.847,40.312,30.008,42,30.008,46z"/>
	</g>
	<g>
		<path fill="#999999" d="M21.668,46h-1c0-4-1.839-5.688-3.969-7.759C14.031,35.646,11.008,33,11.008,25h1
			c0,7,2.739,9.946,5.39,12.524C19.594,39.661,21.668,42,21.668,46z"/>
	</g>
	<g>
		<circle fill="#999999" cx="39.168" cy="20.328" r="3.27"/>
	</g>
	<g>
		<circle fill="#999999" cx="11.168" cy="20.328" r="3.27"/>
	</g>
	<g>
		<path fill="#999999" d="M32,44.673c-3-1.164-4.873-1.87-7.54-1.87c-2.635,0-5.46,0.712-7.46,1.851v3.333
			c0,0,2.348,1.659,7.5,1.659s7.5-1.939,7.5-1.939V44.673z"/>
	</g>
	<g>
		<path fill="#999999" d="M37.377,23h-2.372l-1.304-0.081c-0.229-0.012-0.421-0.185-0.464-0.41l-0.157-0.822l-0.62,0.538
			c-0.101,0.087-0.224,0.13-0.364,0.12c-0.132-0.009-0.256-0.071-0.342-0.172l-0.957-1.108c-0.036-0.042-0.065-0.088-0.086-0.139
			L30.499,20.4l-0.305,0.122l-1.101,1.187c-0.098,0.106-0.214,0.154-0.382,0.16c-0.144-0.004-0.279-0.071-0.371-0.183l-0.826-1.007
			c-1.112,0.471-1.466,0.551-1.661,0.49c-0.325,0.03-1.312,0.206-2.139,0.371c-0.064,0.013-0.131,0.013-0.195,0l-1.182-0.236
			l-1.449,0.863c-0.118,0.071-0.261,0.089-0.393,0.051l-1-0.284l-1.755-0.403l-1.27,0.304l-0.703,0.442
			c-0.099,0.062-0.211,0.088-0.332,0.072l-3.714-0.487c-0.211-0.027-0.381-0.186-0.424-0.394c-0.044-0.208,0.05-0.421,0.232-0.531
			l2.533-1.517c0.099-0.059,0.024-0.083,0.139-0.066L15,19.497v-0.843c0-0.167,0.271-0.322,0.409-0.415s0.408-0.112,0.562-0.048
			l1.291,0.507l2.406-1.063c0.167-0.075,0.373-0.053,0.52,0.059l0.5,0.377l0.298-0.78c0.066-0.174,0.225-0.298,0.41-0.32
			c0.196-0.025,0.369,0.061,0.473,0.215l1.492,2.186l0.535-0.311C23.973,19.015,24.062,19,24.152,19h1.596
			c0.649,0,1.08,0.061,1.341,0.126l2.516-1.873c0.173-0.124,0.404-0.129,0.579-0.009l1.158,0.802l0.819,0.079
			c0.054,0.005,0.105,0.019,0.153,0.04l1.34,0.59c0.057,0.025,0.108,0.06,0.152,0.104c0.367,0.366,0.877,0.305,0.897,0.303
			c0.127-0.018,0.261,0.016,0.364,0.091l1.479,1.079l1.832,0.562c0.264,0.081,0.412,0.361,0.331,0.625
			c-0.081,0.265-0.362,0.411-0.624,0.332l-1.912-0.586c-0.054-0.016-0.104-0.042-0.148-0.074l-1.404-1.024
			c-0.291-0.016-0.937-0.067-1.45-0.531l-1.187-0.523l-0.869-0.084c-0.085-0.008-0.167-0.038-0.237-0.086l-0.974-0.675l-1.919,1.425
			c0.023,0.019,0.044,0.04,0.063,0.063l0.701,0.854l0.787-0.849c0.05-0.054,0.111-0.097,0.18-0.124l0.871-0.351
			c0.25-0.102,0.546,0.02,0.65,0.276l0.368,0.911l0.575,0.666l0.897-0.78c0.136-0.117,0.324-0.154,0.491-0.095
			c0.17,0.059,0.294,0.203,0.328,0.378l0.247,1.298L35.032,22h2.345c0.276,0,0.5,0.224,0.5,0.5S37.653,23,37.377,23z M13.277,21.061
			l2.111,0.277l0.62-0.391c0.047-0.029,0.098-0.05,0.15-0.063l1.464-0.35c0.075-0.018,0.153-0.018,0.229-0.001l2.71,0.667
			l1.43-0.852c0.105-0.063,0.232-0.085,0.354-0.061l0.508,0.101c-0.019-0.02-0.036-0.041-0.052-0.063l-1.217-1.782l-0.192,0.51
			c-0.056,0.148-0.179,0.26-0.33,0.304c-0.151,0.044-0.314,0.013-0.441-0.083l-0.792-0.605l-2.307,1.029
			c-0.127,0.054-0.456,0.058-0.581,0.006L16,19.397v0.675c0,0.145,0.126,0.283,0.017,0.377c-0.109,0.095-0.16,0.139-0.304,0.118
			l-1.333-0.195L13.277,21.061z M23.415,20.501l0.202,0.041c1.566-0.312,2.15-0.399,2.423-0.37c0.091-0.025,0.246-0.07,0.434-0.142
			C26.289,20.007,26.05,20,25.748,20h-1.457l-0.819,0.482C23.453,20.493,23.435,20.493,23.415,20.501z"/>
	</g>
</g>
</svg>
