<?xml version="1.0" encoding="utf-8"?>
<!-- Generator: Adobe Illustrator 16.0.1, SVG Export Plug-In . SVG Version: 6.00 Build 0)  -->
<!DOCTYPE svg PUBLIC "-//W3C//DTD SVG 1.1//EN" "http://www.w3.org/Graphics/SVG/1.1/DTD/svg11.dtd">
<svg version="1.1" id="Слой_1" xmlns="http://www.w3.org/2000/svg" xmlns:xlink="http://www.w3.org/1999/xlink" x="0px" y="0px"
	 width="130px" height="130px" viewBox="0 0 130 130" enable-background="new 0 0 130 130" xml:space="preserve">
<g>
	<path fill="#FFFFFF" d="M83.053,110.715l-2.818-0.719l-0.075,0.162c-4.557-0.963-9.386-1.49-14.396-1.49
		c-5.077,0-9.971,0.537-14.581,1.525l-0.098-0.211l-2.823,0.706l0.138,0.178c-1.873,0.491-3.399,1.054-5.399,1.69v13.585
		c6,1.22,16.399,2.692,22.869,2.692c6.738,0,17.987-1.607,23.155-4.834l-0.122-11.354c-1.891-0.695-3.868-1.298-5.894-1.822
		L83.053,110.715z"/>
</g>
<g>
	<path fill="#FFFFFF" d="M65,2c34.738,0,63,28.262,63,63s-28.262,63-63,63S2,99.738,2,65S30.262,2,65,2 M65,0
		C29.098,0,0,29.101,0,65c0,35.898,29.098,65,65,65c35.898,0,65-29.102,65-65C130,29.101,100.898,0,65,0L65,0z"/>
</g>
<g>
	<path fill="#FFFFFF" d="M51.163,108h-3c0-14-5.138-22.258-10.106-29.865C33.654,71.395,29.496,65,29.496,55h3
		c0,9,3.741,14.862,8.072,21.494C45.534,84.098,51.163,93,51.163,108z"/>
</g>
<g>
	<circle fill="#FFFFFF" cx="30.996" cy="46.064" r="6.98"/>
</g>
<g>
	<path fill="#FFFFFF" d="M84.517,108h-3c0-15,5.629-23.902,10.595-31.506C96.442,69.862,100.184,64,100.184,55h3
		c0,10-4.158,16.395-8.561,23.135C89.654,85.742,84.517,94,84.517,108z"/>
</g>
<g>
	<circle fill="#FFFFFF" cx="101.684" cy="46.064" r="6.98"/>
</g>
<g>
	<g>
		<path fill="#FFFFFF" d="M90.744,40.674c-0.217-0.139,0.254-2.514,0.003-2.465c-0.063,0.012-1.483,0.519-2.501-0.5
			c-0.092-0.092-0.997,1.934-1.117,1.883l-1.633-2.258c-0.096-0.041-1.271-1.742-1.375-1.75l-2.958,2.307l-3.042-2.085
			c-0.348-0.239-1.782-1.846-2.125-1.597l-3,2.5l-2.401,2.307c-0.413-0.184-1.396-0.444-3.11-1.731c-0.173-0.13-0.384,0.05-0.6,0.05
			l-2.639-0.625c-0.314,0-2.068-0.253-2.257-0.001l0.007-1.874l-4.125-2.25c-0.227-0.289-1.814,1.693-2.179,1.758
			c-0.362,0.062-0.661,0.302-0.778,0.65l-0.945,2.798l-1.553-1.061c-0.312-0.214-0.722-0.233-1.053-0.047l-4.367,0.776l-2.621,0.883
			c-0.309-0.172-0.632-0.168-0.938,0.013C43.132,38.534,43,38.861,43,39.216v2.528l-4.119-0.443
			c-0.203-0.021-0.437,0.02-0.616,0.118L38,41.564v2.268l0.924-0.508l4.857,0.529c0.28,0.031,0.62-0.06,0.831-0.249
			c0.213-0.19,0.388-0.46,0.388-0.745v-1.943l0.978,0.574c0.304,0.169,0.646,0.168,0.948-0.002l4.892-2.76l2.122,1.449
			c0.259,0.176,0.58,0.221,0.879,0.121c0.295-0.1,0.527-0.332,0.627-0.629l0.774-2.303l3.372,4.285
			c0.191,0.244,0.502,0.396,0.796,0.383c0.311-0.004,0.602-0.068,0.788-0.316L63.284,39h3.269c2.504,1,3.594,2.085,3.791,2.132
			c0.181,0.043,0.367-0.007,0.541-0.065l4.1-1.367c0.099-0.033,0.191-0.091,0.275-0.153l2.313-1.688l2.678,1.832
			c0.144,0.099,0.31,0.157,0.483,0.171l2.297,0.188l3.156,1.315c1.344,1.227,3.006,1.258,3.787,1.189l3.818,2.427
			C93.856,45.023,94,45.18,94,45.275v-2.531L90.744,40.674z"/>
	</g>
	<g>
		<path fill="#FFFFFF" d="M90.66,46c-0.092,0-0.184-0.07-0.271-0.045l-2.294,0.604l-0.565-2.22c-0.086-0.335-0.34-0.612-0.67-0.715
			c-0.331-0.104-0.691-0.032-0.953,0.194l-2.523,2.187l-1.695-1.962l-0.963-2.384c-0.207-0.511-0.787-0.759-1.301-0.554
			l-2.238,0.898c-0.137,0.055-0.26,0.14-0.36,0.249l-2.243,2.419l-2.006-2.445c-0.282-0.345-0.761-0.462-1.172-0.282
			c-1.439,0.625-3.207,1.328-3.765,1.465c-0.61-0.074-2.033,0.112-6.221,0.947l-3.317-0.664c-0.244-0.049-0.496-0.005-0.709,0.121
			l-3.768,2.248l-0.879-2.727l-6.131,0.986c-0.152-0.035-0.311-0.035-0.463,0.002l-3.688,0.9c-0.115,0.027-0.225,0.076-0.324,0.144
			L40.618,46.4L38,46.046v2.018l2.729,0.369c0.248,0.035,0.491-0.024,0.694-0.163l1.692-1.146l3.282-0.801l4.546,1.052l0.929,2.585
			c0.264,0.076,2.171-1.818,2.408-1.959l3.807-2.271l3.137,0.627c0.13,0.025,0.769,1.38,0.898,1.354
			c2.209-0.441,4.324-2.262,5.092-2.318c0.436,0.155,0.511,1.234,3.533-0.057l3.018,1.492c0.184,0.223,0.454,0.355,0.742,0.365
			c0.289,0.013,0.567-0.108,0.764-0.32l2.87-3.096l0.606,2.559l1.148-1.391c0.041,0.102,0.099,0.196,0.171,0.279l2.46,2.846
			c0.173,0.201,0.42,0.324,0.684,0.344c0.266,0.018,0.527-0.068,0.728-0.242l2.059-1.787l0.417,1.625
			c0.067,0.26,0.726,1.441,0.959,1.576c0.153,0.088-0.164-0.826,0.01-0.826c0.091,0,0.182,0.071,0.271,0.046L90.799,48H94v-1.998
			C94,46.094,93.991,46,93.989,46H90.66z"/>
	</g>
</g>
</svg>
