<?xml version="1.0" encoding="utf-8"?>
<!-- Generator: Adobe Illustrator 16.0.1, SVG Export Plug-In . SVG Version: 6.00 Build 0)  -->
<!DOCTYPE svg PUBLIC "-//W3C//DTD SVG 1.1//EN" "http://www.w3.org/Graphics/SVG/1.1/DTD/svg11.dtd">
<svg version="1.1" id="Слой_1" xmlns="http://www.w3.org/2000/svg" xmlns:xlink="http://www.w3.org/1999/xlink" x="0px" y="0px"
	 width="50px" height="50px" viewBox="0 0 50 50" enable-background="new 0 0 50 50" xml:space="preserve">
<g>
	<defs>
		<rect id="SVGID_1_" y="0" width="49.972" height="50"/>
	</defs>
	<clipPath id="SVGID_2_">
		<use xlink:href="#SVGID_1_"  overflow="visible"/>
	</clipPath>
	<path clip-path="url(#SVGID_2_)" fill="#FFA200" d="M24.985,47.431c-12.36,0-22.417-10.056-22.417-22.416
		c0-12.361,10.057-22.417,22.417-22.417c12.36,0,22.417,10.056,22.417,22.417C47.402,37.375,37.346,47.431,24.985,47.431
		 M46.927,0.031H25.095c-0.036,0-0.073-0.002-0.109-0.002c-0.035,0-0.072,0.002-0.107,0.002h-0.275c0,0,0.01,0.003,0.021,0.007
		C11.014,0.234,0,11.359,0,25.015C0,38.791,11.209,50,24.985,50c13.578,0,24.652-10.889,24.971-24.39
		c0.01,0.073,0.016,0.119,0.016,0.119V2.498C49.972-0.461,46.927,0.031,46.927,0.031"/>
</g>
<g>
	<defs>
		<path id="SVGID_3_" d="M23.065,18.717c0-0.852,0.69-1.542,1.54-1.542h8.27c0.852,0,1.541,0.69,1.541,1.542
			c0,0.852-0.689,1.541-1.541,1.541h-8.27C23.756,20.258,23.065,19.568,23.065,18.717 M21.998,35.288L11.775,25.065
			c-0.6-0.603-0.6-1.579,0-2.182l10.682-10.681c0.601-0.603,1.578-0.603,2.18,0s0.602,1.579,0,2.182l-9.59,9.591l8.68,8.68h6.025
			c1.4,0,3.62-0.982,3.62-3.619c0-2.793-2.17-2.933-2.604-2.933c-0.97,0-2.199-0.008-4.62-0.024v2.371
			c0,0.852-0.691,1.541-1.543,1.541c-0.85,0-1.54-0.689-1.54-1.541v-3.923c0-0.41,0.163-0.805,0.455-1.095
			c0.292-0.289,0.688-0.468,1.097-0.447l0.651,0.004c3.019,0.021,4.421,0.029,5.5,0.029c2.826,0,5.686,2.067,5.686,6.018
			c0,4.194-3.408,6.702-6.702,6.702h-6.663C22.681,35.738,22.288,35.575,21.998,35.288 M6.937,25.015
			c0,9.967,8.081,18.049,18.049,18.049c9.967,0,18.05-8.082,18.05-18.049c0-9.969-8.083-18.05-18.05-18.05
			C15.018,6.964,6.937,15.046,6.937,25.015"/>
	</defs>
	<clipPath id="SVGID_4_">
		<use xlink:href="#SVGID_3_"  overflow="visible"/>
	</clipPath>
	
		<radialGradient id="SVGID_5_" cx="0.5381" cy="35.4805" r="1.3884" gradientTransform="matrix(13.0016 0 0 -13.0016 18 486.3038)" gradientUnits="userSpaceOnUse">
		<stop  offset="0" style="stop-color:#DEEDE2"/>
		<stop  offset="0.0843" style="stop-color:#DEEDE2"/>
		<stop  offset="0.613" style="stop-color:#44BFDC"/>
		<stop  offset="0.826" style="stop-color:#04ACD9"/>
		<stop  offset="1" style="stop-color:#278DCD"/>
	</radialGradient>
	<rect x="6.937" y="6.964" clip-path="url(#SVGID_4_)" fill="url(#SVGID_5_)" width="36.099" height="36.099"/>
</g>
</svg>
