<?xml version="1.0" encoding="utf-8"?>
<!-- Generator: Adobe Illustrator 16.0.1, SVG Export Plug-In . SVG Version: 6.00 Build 0)  -->
<!DOCTYPE svg PUBLIC "-//W3C//DTD SVG 1.1//EN" "http://www.w3.org/Graphics/SVG/1.1/DTD/svg11.dtd">
<svg version="1.1" id="Слой_1" xmlns="http://www.w3.org/2000/svg" xmlns:xlink="http://www.w3.org/1999/xlink" x="0px" y="0px"
	 width="130px" height="130px" viewBox="0 0 130 130" enable-background="new 0 0 130 130" xml:space="preserve">
<path fill="#FFFFFF" d="M65,2c34.738,0,63,28.262,63,63.001C128,99.739,99.738,128,65,128S2,99.739,2,65.001C2,30.262,30.262,2,65,2
	 M65,0C29.098,0,0,29.101,0,65.001C0,100.898,29.098,130,65,130c35.898,0,65-29.102,65-64.999C130,29.101,100.898,0,65,0L65,0z"/>
<g>
	<polygon fill="#FFFFFF" points="86,83 87,83 88,84.5 88,85.5 87,86 86,86 	"/>
</g>
<g>
	<polygon fill="#FFFFFF" points="86,88 87,88 88,89.5 88,90.5 87,91 86,91 	"/>
</g>
<g>
	<polygon fill="#FFFFFF" points="90.062,85 88,85 88,84 89.938,84 106,80 127,80 127,81 106.062,81 	"/>
</g>
<g>
	<polygon fill="#FFFFFF" points="90.076,90 88,90 88,89 89.924,89 106,84 126,84 126,85 106.076,85 	"/>
</g>
<g>
	<polygon fill="#FFFFFF" points="84,93.529 84,88.5 84,80.5 84,75.5 84,67.5 84,62.5 84,54.5 84,49.5 84,41.5 84,36.324 80.417,31 
		50.27,31 46,36.324 46,41.5 46,49.5 46,54.5 46,62.5 46,67.5 46,75.5 46,80.5 46,88.5 46,93.529 50.27,98 80.417,98 	"/>
</g>
<g>
	<polygon fill="#FFFFFF" points="86,63 87,63 88,64.5 88,65.5 87,66 86,66 	"/>
</g>
<g>
	<polygon fill="#FFFFFF" points="86,68 87,68 88,69.5 88,70.5 87,71 86,71 	"/>
</g>
<g>
	<polygon fill="#FFFFFF" points="86,73 87,73 88,74.5 88,75.5 87,76 86,76 	"/>
</g>
<g>
	<polygon fill="#FFFFFF" points="86,78 87,78 88,79.5 88,80.5 87,81 86,81 	"/>
</g>
<g>
	<rect x="88" y="64" fill="#FFFFFF" width="41" height="1"/>
</g>
<g>
	<polygon fill="#FFFFFF" points="88,70 88,69 90,69 105.969,68 129,68 129,69 106,69 90.031,70 	"/>
</g>
<g>
	<polygon fill="#FFFFFF" points="88,75.417 88,74 90,74 105.688,72.213 129,72.417 129,73 106,73 89.813,75.205 	"/>
</g>
<g>
	<polygon fill="#FFFFFF" points="88,80.417 88,79 90,79 105.659,76.217 128,76.417 128,77 106,77 89.843,80.199 	"/>
</g>
<g>
	<polygon fill="#FFFFFF" points="86,38 87,38 88,39.5 88,40.5 87,41 86,41 	"/>
</g>
<g>
	<polygon fill="#FFFFFF" points="86,43 87,43 88,44.5 88,45.5 87,46 86,46 	"/>
</g>
<g>
	<polygon fill="#FFFFFF" points="86,48 87,48 88,49.5 88,50.5 87,51 86,51 	"/>
</g>
<g>
	<polygon fill="#FFFFFF" points="86,53 87,53 88,54.5 88,55.5 87,56 86,56 	"/>
</g>
<g>
	<polygon fill="#FFFFFF" points="86,58 87,58 88,59.5 88,60.5 87,61 86,61 	"/>
</g>
<g>
	<polygon fill="#FFFFFF" points="125,45.417 105.602,45.185 89.924,40 88,40 88,39.417 89.9,39.232 106.076,44 125,44 	"/>
</g>
<g>
	<polygon fill="#FFFFFF" points="126,49.417 105.63,49.193 89.938,45 88,45 88,44.417 89.872,44.224 106.062,48 126,48 	"/>
</g>
<g>
	<polygon fill="#FFFFFF" points="128,53 106,53 89.659,50.199 88,50.417 88,49 90,49 105.843,52.217 128,52.417 	"/>
</g>
<g>
	<polygon fill="#FFFFFF" points="128,57 106,57 89.688,55.205 88,55.417 88,54 90,54 105.813,56.213 128,56.417 	"/>
</g>
<g>
	<polygon fill="#FFFFFF" points="129,61 106,61 89.969,60 88,60 88,59 90,59 106.031,60 129,60 	"/>
</g>
<g>
	<g>
		<polygon fill="#FFFFFF" points="44,63 43,63 42,64.5 42,65.5 43,66 44,66 		"/>
	</g>
	<g>
		<polygon fill="#FFFFFF" points="44,68 43,68 42,69.5 42,70.5 43,71 44,71 		"/>
	</g>
	<g>
		<polygon fill="#FFFFFF" points="44,73 43,73 42,74.5 42,75.5 43,76 44,76 		"/>
	</g>
	<g>
		<polygon fill="#FFFFFF" points="44,78 43,78 42,79.5 42,80.5 43,81 44,81 		"/>
	</g>
	<g>
		<polygon fill="#FFFFFF" points="44,83 43,83 42,84.5 42,85.5 43,86 44,86 		"/>
	</g>
	<g>
		<polygon fill="#FFFFFF" points="44,88 43,88 42,89.5 42,90.5 43,91 44,91 		"/>
	</g>
	<g>
		<rect x="1" y="64" fill="#FFFFFF" width="41" height="1"/>
	</g>
	<g>
		<polygon fill="#FFFFFF" points="42,70 40,70 23.969,69 1,69 1,68 24,68 40.031,69 42,69 		"/>
	</g>
	<g>
		<polygon fill="#FFFFFF" points="42,75 40,75 23.688,73.205 1,73.417 1,72 24,72 39.813,74.213 42,74.417 		"/>
	</g>
	<g>
		<polygon fill="#FFFFFF" points="42,80 40,80 23.659,77.199 2,77.417 2,76 24,76 39.843,79.217 42,79.417 		"/>
	</g>
	<g>
		<polygon fill="#FFFFFF" points="42,85.417 39.63,85.193 23.938,81 2,81 2,80.417 23.872,80.225 40.062,84 42,84 		"/>
	</g>
	<g>
		<polygon fill="#FFFFFF" points="44,38 43,38 42,39.5 42,40.5 43,41 44,41 		"/>
	</g>
	<g>
		<polygon fill="#FFFFFF" points="44,43 43,43 42,44.5 42,45.5 43,46 44,46 		"/>
	</g>
	<g>
		<polygon fill="#FFFFFF" points="44,48 43,48 42,49.5 42,50.5 43,51 44,51 		"/>
	</g>
	<g>
		<polygon fill="#FFFFFF" points="44,53 43,53 42,54.5 42,55.5 43,56 44,56 		"/>
	</g>
	<g>
		<polygon fill="#FFFFFF" points="44,58 43,58 42,59.5 42,60.5 43,61 44,61 		"/>
	</g>
	<g>
		<polygon fill="#FFFFFF" points="24.076,45 4,45 4,44 23.924,44 40,39 42,39 42,40 40.076,40 		"/>
	</g>
	<g>
		<polygon fill="#FFFFFF" points="24.062,49 2,49 2,48 23.938,48 40,44 42,44 42,45 40.062,45 		"/>
	</g>
	<g>
		<polygon fill="#FFFFFF" points="1,53.417 1,52 24,52 39.659,49.217 42,49.417 42,50 40,50 23.843,53.199 		"/>
	</g>
	<g>
		<polygon fill="#FFFFFF" points="1,57.417 1,56 24,56 39.688,54.213 42,54.417 42,55 40,55 23.813,57.205 		"/>
	</g>
	<g>
		<polygon fill="#FFFFFF" points="1,61 1,60 24,60 39.969,59 42,59 42,60 40,60 24.031,61 		"/>
	</g>
	<g>
		<polygon fill="#FFFFFF" points="42,90.417 39.602,90.186 23.924,85 3,85 3,84.417 23.9,84.232 40.076,89 42,89 		"/>
	</g>
</g>
<g>
	<path fill="#999999" d="M74.39,52H64.37c-0.018,0-0.034,0-0.05,0c-0.017,0-0.034,0-0.05,0h-0.126c0,0,0.003,0.258,0.008,0.26
		c-6.246,0.09-11.301,5.324-11.301,11.593c0,6.322,5.144,11.532,11.469,11.532c6.231,0,10.919-4.965,11.067-11.162
		C75.391,64.256,75,64.31,75,64.31V53.646C75,52.288,74.39,52,74.39,52z M64.32,74.271c-5.675,0-10.29-4.615-10.29-10.289
		s4.615-10.29,10.29-10.29c5.673,0,10.288,4.616,10.288,10.29S69.993,74.271,64.32,74.271z"/>
	<path fill="#999999" d="M64.313,55.696c-4.576,0-8.284,3.709-8.284,8.285c0,4.574,3.708,8.284,8.284,8.284
		c4.575,0,8.284-3.71,8.284-8.284C72.598,59.405,68.889,55.696,64.313,55.696z M68.644,60.501c0,0.391-0.318,0.499-0.709,0.499
		H64.14c-0.392,0-0.707-0.108-0.707-0.499c0-0.392,0.315-0.501,0.707-0.501h3.795C68.325,60,68.644,60.109,68.644,60.501z
		 M66.501,68h-3.06c-0.187,0-0.366,0.377-0.5,0.244l-4.69-4.465c-0.276-0.277-0.276-0.611,0-0.889l4.902-4.846
		c0.275-0.277,0.724-0.248,0.999,0.028c0.277,0.276,0.277,0.737,0,1.015l-4.4,4.165L63.736,67h2.765
		c0.644,0,1.661-0.207,1.661-1.418c0-1.281-1.419-1.224-1.618-1.224c-0.445,0-1.544,0.119-2.544,0.111v1.088
		c0,0.391-0.11,0.707-0.5,0.707c-0.392,0-0.5-0.316-0.5-0.707v-1.801c0-0.188,0.29-0.369,0.425-0.502
		c0.133-0.133,0.423-0.214,0.612-0.205l0.352,0.002c1.385,0.01,2.057,0.014,2.551,0.014c1.299,0,2.624,0.497,2.624,2.31
		C69.563,67.301,68.014,68,66.501,68z"/>
</g>
</svg>
