<?xml version="1.0" encoding="utf-8"?>
<!-- Generator: Adobe Illustrator 16.0.1, SVG Export Plug-In . SVG Version: 6.00 Build 0)  -->
<!DOCTYPE svg PUBLIC "-//W3C//DTD SVG 1.1//EN" "http://www.w3.org/Graphics/SVG/1.1/DTD/svg11.dtd">
<svg version="1.1" id="Слой_1" xmlns="http://www.w3.org/2000/svg" xmlns:xlink="http://www.w3.org/1999/xlink" x="0px" y="0px"
	 width="50px" height="50px" viewBox="0 0 50 50" enable-background="new 0 0 50 50" xml:space="preserve">
<g>
	<path fill="#999999" d="M25,1c13.233,0,24,10.767,24,24S38.233,49,25,49S1,38.233,1,25S11.767,1,25,1 M25,0C11.191,0,0,11.193,0,25
		s11.191,25,25,25c13.807,0,25-11.193,25-25S38.807,0,25,0L25,0z"/>
</g>
<g>
	<polygon fill="#999999" points="33,37.502 33,35.121 33,31.33 33,28.963 33,25.172 33,22.805 33,16.646 33,12.857 33,11.406 
		32.113,10 18.627,10 16,11.406 16,12.857 16,16.646 16,19.016 16,22.805 16,25.172 16,28.963 16,31.33 16,35.121 16,37.502 
		18.627,40 32.113,40 	"/>
</g>
<g>
	<g>
		<polygon fill="#999999" points="34,14 35.1,14 36,14.979 36,15.979 35.1,17 34,17 		"/>
	</g>
	<g>
		<polygon fill="#999999" points="34,18 35.1,18 36,18.979 36,19.979 35.1,21 34,21 		"/>
	</g>
	<g>
		<polygon fill="#999999" points="34,22 35.1,22 36,22.979 36,23.979 35.1,25 34,25 		"/>
	</g>
	<g>
		<polygon fill="#999999" points="34,26 35.1,26 36,26.979 36,27.979 35.1,29 34,29 		"/>
	</g>
	<g>
		<polygon fill="#999999" points="34,30 35.1,30 36,30.979 36,31.979 35.1,33 34,33 		"/>
	</g>
	<g>
		<polygon fill="#999999" points="34,34 35.1,34 36,34.979 36,35.979 35.1,37 34,37 		"/>
	</g>
	<g>
		<polygon fill="#999999" points="49,18 41.981,18 37.981,16 36,16 36,15 38.218,15 42.218,17 49,17 		"/>
	</g>
	<g>
		<polygon fill="#999999" points="49,20.979 41.929,20.975 38.038,20 36,20 36,18.979 38.171,19.004 42.161,20 49,20 		"/>
	</g>
	<g>
		<rect x="36" y="23" fill="#999999" width="14" height="1"/>
	</g>
	<g>
		<polygon fill="#999999" points="38.161,28 36,28 36,27 38.038,27 42.1,26 50,26 50,27 42.161,27 		"/>
	</g>
	<g>
		<polygon fill="#999999" points="38.218,32 36,32 36,31 37.981,31 41.981,29 49,29 49,30 42.218,30 		"/>
	</g>
	<g>
		<polygon fill="#999999" points="38.267,36 36,36 36,35 37.933,35 41.933,32 49,32 49,33 42.267,33 		"/>
	</g>
</g>
<g>
	<g>
		<polygon fill="#999999" points="15,14 14.1,14 13,14.979 13,15.979 14.1,17 15,17 		"/>
	</g>
	<g>
		<polygon fill="#999999" points="15,18 14.1,18 13,18.979 13,19.979 14.1,21 15,21 		"/>
	</g>
	<g>
		<polygon fill="#999999" points="15,22 14.1,22 13,22.979 13,23.979 14.1,25 15,25 		"/>
	</g>
	<g>
		<polygon fill="#999999" points="15,26 14.1,26 13,26.979 13,27.979 14.1,29 15,29 		"/>
	</g>
	<g>
		<polygon fill="#999999" points="15,30 14.1,30 13,30.979 13,31.979 14.1,33 15,33 		"/>
	</g>
	<g>
		<polygon fill="#999999" points="15,34 14.1,34 13,34.979 13,35.979 14.1,37 15,37 		"/>
	</g>
	<g>
		<polygon fill="#999999" points="7.218,18 1,18 1,17 6.981,17 10.981,15 13,15 13,16 11.218,16 		"/>
	</g>
	<g>
		<polygon fill="#999999" points="7.161,21 1,21 1,20 7.038,20 11.1,19 13,19 13,20 11.161,20 		"/>
	</g>
	<g>
		<rect y="23" fill="#999999" width="13" height="1"/>
	</g>
	<g>
		<polygon fill="#999999" points="13,27.979 10.929,27.975 7.038,27 0,27 0,25.979 7.171,26.004 11.161,27 13,27 		"/>
	</g>
	<g>
		<polygon fill="#999999" points="13,32 10.981,32 6.981,30 1,30 1,29 7.218,29 11.218,31 13,31 		"/>
	</g>
	<g>
		<polygon fill="#999999" points="13,36 10.933,36 6.933,33 1,33 1,32 7.267,32 11.267,35 13,35 		"/>
	</g>
</g>
<g>
	<path fill="#F2F2F2" d="M28.536,21h-3.924c-0.008,0-0.015,0-0.019,0c-0.007,0-0.015,0-0.021,0h-0.05c0,0,0.001,0,0.003,0
		c-2.446,0-4.427,2.144-4.427,4.598c0,2.476,2.016,4.546,4.494,4.546c2.44,0,4.388-1.931,4.446-4.357c0,0.012-0.04,0.047-0.04,0.047
		v-4.178C29,21.126,28.536,21,28.536,21z M24.594,29.736c-2.224,0-4.031-1.809-4.031-4.03s1.808-4.03,4.031-4.03
		c2.221,0,4.029,1.809,4.029,4.03S26.814,29.736,24.594,29.736z"/>
	<circle fill="#F2F2F2" cx="24.591" cy="25.706" r="2.151"/>
</g>
</svg>
