<?xml version="1.0" encoding="utf-8"?>
<!-- Generator: Adobe Illustrator 16.0.1, SVG Export Plug-In . SVG Version: 6.00 Build 0)  -->
<!DOCTYPE svg PUBLIC "-//W3C//DTD SVG 1.1//EN" "http://www.w3.org/Graphics/SVG/1.1/DTD/svg11.dtd">
<svg version="1.1" id="Слой_1" xmlns="http://www.w3.org/2000/svg" xmlns:xlink="http://www.w3.org/1999/xlink" x="0px" y="0px"
	 width="50px" height="50px" viewBox="0 0 50 50" enable-background="new 0 0 50 50" xml:space="preserve">
<g>
	<g>
		<g>
			<path fill="#999999" d="M25,1c13.233,0,24,10.767,24,24S38.233,49,25,49S1,38.233,1,25S11.767,1,25,1 M25,0
				C11.191,0,0,11.193,0,25s11.191,25,25,25c13.807,0,25-11.193,25-25S38.807,0,25,0L25,0z"/>
		</g>
	</g>
</g>
<g>
	<path fill="#999999" d="M48.657,33.102c-2.484,0-3.112-3.99-4.102-8.633c-0.412-1.934-1.508-7.071-2.374-7.071
		c-0.865,0-1.96,5.138-2.372,7.071c-0.988,4.643-1.842,8.651-4.325,8.651c-2.484,0-3.339-4.011-4.328-8.654
		c-0.411-1.934-1.505-7.068-2.369-7.068s-1.958,5.136-2.369,7.069c-0.989,4.644-1.843,8.653-4.326,8.653s-3.338-4.01-4.327-8.653
		c-0.411-1.934-1.505-7.069-2.37-7.069c-0.864,0-1.958,5.135-2.369,7.068c-0.989,4.644-1.844,8.654-4.328,8.654
		c-2.483,0-3.338-4.01-4.326-8.652c-0.412-1.934-1.507-7.07-2.372-7.07v-2c2.484,0,3.339,4.011,4.328,8.654
		c0.411,1.933,1.505,7.068,2.37,7.068s1.96-5.138,2.372-7.071c0.988-4.643,1.842-8.651,4.325-8.651s3.338,4.01,4.327,8.653
		c0.411,1.934,1.505,7.069,2.37,7.069c0.864,0,1.958-5.136,2.369-7.069c0.989-4.644,1.843-8.653,4.326-8.653
		s3.337,4.009,4.325,8.651c0.412,1.934,1.507,7.071,2.372,7.071c0.864,0,1.958-5.135,2.369-7.068
		c0.989-4.644,1.844-8.654,4.328-8.654c2.485,0,3.34,4.011,4.33,8.654c0.411,1.934,1.506,7.068,2.371,7.068L48.657,33.102z"/>
</g>
<g>
	<path fill="#999999" d="M7.908,42.597l-0.586-0.818c7.721-5.535,21.986-17.726,30.772-37.181l0.918,0.415
		C30.13,24.681,15.712,37.003,7.908,42.597z"/>
</g>
<g>
	<path fill="#999999" d="M16.127,48.111l-0.723-0.675c6.134-6.26,17.502-19.927,24.716-41.136l0.949,0.307
		C33.793,27.999,22.319,41.793,16.127,48.111z"/>
</g>
</svg>
