<?xml version="1.0" encoding="utf-8"?>
<!-- Generator: Adobe Illustrator 16.0.1, SVG Export Plug-In . SVG Version: 6.00 Build 0)  -->
<!DOCTYPE svg PUBLIC "-//W3C//DTD SVG 1.1//EN" "http://www.w3.org/Graphics/SVG/1.1/DTD/svg11.dtd">
<svg version="1.1" id="Слой_1" xmlns="http://www.w3.org/2000/svg" xmlns:xlink="http://www.w3.org/1999/xlink" x="0px" y="0px"
	 width="130px" height="130px" viewBox="0 0 130 130" enable-background="new 0 0 130 130" xml:space="preserve">
<g>
	<g>
		<path fill="#FFFFFF" d="M107.334,83.747c-3.791,0-5.238-7.633-6.913-16.472c-1.12-5.915-2.814-14.854-4.958-14.854
			c-2.142,0-3.833,8.937-4.954,14.852c-1.673,8.839-3.119,16.474-6.91,16.474s-5.236-7.634-6.911-16.474
			c-1.12-5.914-2.812-14.852-4.952-14.852c-2.142,0-3.831,8.937-4.952,14.85c-1.674,8.841-3.119,16.476-6.91,16.476
			s-5.236-7.633-6.908-16.472c-1.121-5.915-2.812-14.854-4.954-14.854s-3.834,8.938-4.954,14.852
			c-1.675,8.84-3.12,16.474-6.911,16.474s-5.237-7.633-6.91-16.472c-1.121-5.915-2.814-14.854-4.956-14.854
			s-3.832,8.937-4.952,14.85c-1.675,8.841-3.12,16.476-6.911,16.476c-3.358,0-4.825-5.648-6.514-14.39H0.291v-1.993h7.594v1.751
			c0.977,5.069,2.589,12.64,4.531,12.64c2.142,0,3.834-8.938,4.954-14.854c1.673-8.839,3.118-16.472,6.909-16.472
			s5.237,7.635,6.912,16.476c1.121,5.913,2.812,14.85,4.954,14.85s3.834-8.938,4.954-14.852c1.673-8.84,3.12-16.474,6.911-16.474
			c3.79,0,5.235,7.635,6.91,16.476c1.12,5.913,2.811,14.85,4.952,14.85s3.834-8.938,4.954-14.854
			c1.673-8.839,3.118-16.472,6.908-16.472c3.791,0,5.236,7.634,6.909,16.474c1.12,5.914,2.812,14.852,4.954,14.852
			s3.833-8.938,4.954-14.854c1.675-8.839,3.119-16.472,6.91-16.472c3.793,0,5.24,7.635,6.915,16.476
			c1.12,5.913,2.814,14.85,4.956,14.85c2.141,0,3.835-8.938,4.955-14.852c1.673-8.84,3.12-16.474,6.911-16.474
			c3.536,0,5.019,6.395,7.02,16.935h2.986v1.993h-4.752V68.54l-0.037,0.007l-0.129-0.673c-1.095-5.778-2.929-15.452-5.088-15.452
			c-2.142,0-3.834,8.938-4.954,14.852C112.571,76.113,111.127,83.747,107.334,83.747z"/>
	</g>
	<g>
		<path fill="#FFFFFF" d="M20.324,111.135l-1.404-1.487c0.586-0.309,57.587-30.963,79.531-99.068l1.896,0.61
			C78.146,80.093,20.916,110.824,20.324,111.135z"/>
	</g>
	<g>
		<path fill="#FFFFFF" d="M7.61,93.346l-0.501-0.866C7.637,92.272,59.002,71.363,81,3.088l0.947,0.306
			C59.797,72.136,8.142,93.136,7.61,93.346z"/>
	</g>
	<g>
		<path fill="#FFFFFF" d="M38.314,124.038l-1.218-1.578c-0.928,0.804,44.714-35.172,63.914-110.143l1.929,0.494
			c-10.123,39.53-27.512,67.965-40.318,84.856C48.729,115.995,37.044,125.104,38.314,124.038z"/>
	</g>
</g>
<path fill="#FFFFFF" d="M65,2c34.738,0,63,28.262,63,63s-28.262,63-63,63S2,99.738,2,65S30.262,2,65,2 M65,0C29.098,0,0,29.102,0,65
	s29.098,65,65,65c35.898,0,65-29.102,65-65S100.898,0,65,0L65,0z"/>
</svg>
