<?xml version="1.0" encoding="utf-8"?>
<!-- Generator: Adobe Illustrator 16.0.1, SVG Export Plug-In . SVG Version: 6.00 Build 0)  -->
<!DOCTYPE svg PUBLIC "-//W3C//DTD SVG 1.1//EN" "http://www.w3.org/Graphics/SVG/1.1/DTD/svg11.dtd">
<svg version="1.1" id="Слой_1" xmlns="http://www.w3.org/2000/svg" xmlns:xlink="http://www.w3.org/1999/xlink" x="0px" y="0px"
	 width="50px" height="50px" viewBox="0 0 50 50" enable-background="new 0 0 50 50" xml:space="preserve">
<g>
	<path fill="#999999" d="M30.972,37.03l-0.373-0.785l-2.983,0.761l-0.01,1.493c0,0,3.131,1.826,5.312,0.652
		c3.246-1.752,3.06-4.313,3.06-4.313l-1.018-1.06l-2.272,1.432l0.421,0.758l-0.683,0.984L30.972,37.03z"/>
	<path fill="#999999" d="M40.866,44.692l-5.501-5.747c0,0-2.193,1.38-3.949,1.425l-5.109,9.469
		C31.785,49.719,36.823,47.819,40.866,44.692z"/>
	<path fill="#999999" d="M43.566,17.588l-10.594,5.18l-9.617-6.694c0.259-0.541,0.284-1.189,0.014-1.776
		c-0.482-1.05-1.725-1.51-2.775-1.028c-1.05,0.483-1.51,1.726-1.027,2.776c0.271,0.587,0.779,0.989,1.357,1.146l-1.221,12.063
		L9.461,34.263c0,0,9.474,6.062,21.486,0.69C43.291,29.433,43.566,17.588,43.566,17.588z M22.91,16.687l9.282,6.462l-5.349,2.615
		l-4.105-8.931C22.799,16.788,22.855,16.739,22.91,16.687z M20.505,28.863l1.175-11.612c0.129-0.012,0.255-0.038,0.382-0.076
		l4.101,8.922L20.505,28.863z"/>
	<g>
		<path fill="#999999" d="M25,1c13.233,0,24,10.767,24,24S38.233,49,25,49S1,38.233,1,25S11.767,1,25,1 M25,0
			C11.191,0,0,11.193,0,25s11.191,25,25,25c13.807,0,25-11.193,25-25S38.807,0,25,0L25,0z"/>
	</g>
</g>
</svg>
