<?xml version="1.0" encoding="utf-8"?>
<!-- Generator: Adobe Illustrator 16.0.1, SVG Export Plug-In . SVG Version: 6.00 Build 0)  -->
<!DOCTYPE svg PUBLIC "-//W3C//DTD SVG 1.1//EN" "http://www.w3.org/Graphics/SVG/1.1/DTD/svg11.dtd">
<svg version="1.1" id="Слой_1" xmlns="http://www.w3.org/2000/svg" xmlns:xlink="http://www.w3.org/1999/xlink" x="0px" y="0px"
	 width="130px" height="130px" viewBox="0 0 130 130" enable-background="new 0 0 130 130" xml:space="preserve">
<path fill="#FFFFFF" d="M77.759,95.639l-0.983-2.074l-7.87,2.01l-0.027,3.938c0,0,8.261,4.822,14.013,1.721
	c8.568-4.619,8.075-11.379,8.075-11.379l-2.684-2.795l-5.997,3.777l1.111,1.998l-1.801,2.6L77.759,95.639z"/>
<path fill="#FFFFFF" d="M103.869,115.857l-14.516-15.166c0,0-5.786,3.643-10.424,3.762L65.45,129.438
	C79.907,129.121,93.199,124.109,103.869,115.857z"/>
<path fill="#FFFFFF" d="M110.996,44.334L83.038,58.002L57.663,40.337c0.682-1.429,0.748-3.137,0.034-4.687
	c-1.273-2.771-4.552-3.985-7.322-2.711c-2.771,1.273-3.984,4.553-2.711,7.323c0.714,1.55,2.054,2.611,3.581,3.024l-3.22,31.832
	L20.996,88.334c0,0,25,16,56.699,1.823C110.267,75.59,110.996,44.334,110.996,44.334z M56.486,41.954l24.495,17.054l-14.115,6.9
	L56.032,42.342C56.192,42.221,56.343,42.091,56.486,41.954z M50.141,74.086l3.099-30.641c0.338-0.033,0.675-0.101,1.008-0.199
	l10.822,23.541L50.141,74.086z"/>
<path fill="#FFFFFF" d="M65,2c34.738,0,63,28.262,63,63s-28.262,63-63,63S2,99.738,2,65S30.262,2,65,2 M65,0C29.098,0,0,29.102,0,65
	s29.098,65,65,65c35.898,0,65-29.102,65-65S100.898,0,65,0L65,0z"/>
</svg>
